<svg id="레이어_1" data-name="레이어 1" xmlns="http://www.w3.org/2000/svg" xmlns:xlink="http://www.w3.org/1999/xlink" viewBox="0 0 100 26.82"><defs><style>.cls-1{fill:#231815;}.cls-2{fill:#367fa3;}.cls-3{fill:url(#무제_그라디언트_46);}.cls-4{fill:url(#무제_그라디언트_43);}</style><linearGradient id="무제_그라디언트_46" x1="52.03" y1="25.48" x2="52.03" y2="1.58" gradientUnits="userSpaceOnUse"><stop offset="0" stop-color="#367fa3"/><stop offset="1" stop-color="#231815"/></linearGradient><linearGradient id="무제_그라디언트_43" x1="56.47" y1="26.65" x2="56.47" y2="1.5" gradientUnits="userSpaceOnUse"><stop offset="0" stop-color="#3683ac"/><stop offset="1" stop-color="#231815"/></linearGradient></defs><title>firston</title><path class="cls-1" d="M8,8.62a.58.58,0,0,1,.41.13.51.51,0,0,1,.15.41v.49a.6.6,0,0,1-.15.44.54.54,0,0,1-.41.15H4.68V25.86a.54.54,0,0,1-.16.42.55.55,0,0,1-.39.14H3.42c-.34,0-.51-.19-.51-.56V10.24H.55a.56.56,0,0,1-.41-.15A.64.64,0,0,1,0,9.65V9.16a.55.55,0,0,1,.14-.41.59.59,0,0,1,.41-.13H2.91V5.53a6.13,6.13,0,0,1,.41-2.28A5.06,5.06,0,0,1,4.44,1.51,4.71,4.71,0,0,1,6.14.39,5.77,5.77,0,0,1,8.28,0a.61.61,0,0,1,.45.16.6.6,0,0,1,.15.42v.65a.47.47,0,0,1-.16.39.55.55,0,0,1-.38.13A3.84,3.84,0,0,0,6.9,2a3.13,3.13,0,0,0-1.16.81A3.87,3.87,0,0,0,5,4.2a6.05,6.05,0,0,0-.28,2V8.62Z" transform="translate(0 0)"/><path class="cls-1" d="M30.93,10.2a.23.23,0,0,1-.17.07.69.69,0,0,1-.25-.06,1.72,1.72,0,0,1-.38-.23,5.63,5.63,0,0,0-.76-.46,9.84,9.84,0,0,0-.92-.45,7.11,7.11,0,0,0-1-.34,4.11,4.11,0,0,0-1-.13A5.85,5.85,0,0,0,24.28,9a5.31,5.31,0,0,0-1.83,1.17,5.4,5.4,0,0,0-1.23,1.86,6.17,6.17,0,0,0-.46,2.44V26c0,.31-.16.47-.49.47h-.81c-.34,0-.51-.16-.51-.47V7.53c0-.28.15-.41.43-.41h.82a.54.54,0,0,1,.42.16.54.54,0,0,1,.14.4v2.5A6.35,6.35,0,0,1,21.61,9a6,6,0,0,1,1.22-1,7,7,0,0,1,1.58-.76,5.85,5.85,0,0,1,1.86-.29A9.79,9.79,0,0,1,27.75,7,7.37,7.37,0,0,1,29,7.33a7.49,7.49,0,0,1,1.19.54,10.45,10.45,0,0,1,1.13.78,3.45,3.45,0,0,1,.28.26.47.47,0,0,1,.12.32c0,.09-.09.23-.26.42A7.47,7.47,0,0,1,30.93,10.2Z" transform="translate(0 0)"/><path class="cls-1" d="M34.41,22.37a1.21,1.21,0,0,1,0-.14.62.62,0,0,1,0-.13.37.37,0,0,1,.11-.29,1.14,1.14,0,0,1,.27-.17l.6-.26.12,0h.11a.28.28,0,0,1,.22.13,2.53,2.53,0,0,1,.16.33q.08.2.15.42a2.42,2.42,0,0,0,.16.39,3.3,3.3,0,0,0,.84,1.1,5.4,5.4,0,0,0,1.2.76,6.55,6.55,0,0,0,1.31.45,6.26,6.26,0,0,0,1.22.14,7.24,7.24,0,0,0,1.56-.2A5.88,5.88,0,0,0,44,24.21a4,4,0,0,0,1.28-1.16,2.91,2.91,0,0,0,.52-1.76,2.78,2.78,0,0,0-.46-1.62,4.08,4.08,0,0,0-1.18-1.16,6.75,6.75,0,0,0-1.62-.78,15.17,15.17,0,0,0-1.8-.51,14.07,14.07,0,0,1-2.19-.73,8.21,8.21,0,0,1-1.87-1.12,5.14,5.14,0,0,1-1.3-1.5A3.72,3.72,0,0,1,34.89,12a5.32,5.32,0,0,1,.43-2.19,4.72,4.72,0,0,1,1.24-1.68A5.48,5.48,0,0,1,38.47,7,7.84,7.84,0,0,1,41,6.64a7,7,0,0,1,2,.28,5.88,5.88,0,0,1,1.69.81A5.56,5.56,0,0,1,46,9a7.36,7.36,0,0,1,.92,1.65h0a.45.45,0,0,1,.09.23.41.41,0,0,1-.12.27,1.73,1.73,0,0,1-.29.23,2.62,2.62,0,0,1-.33.17.78.78,0,0,1-.26.06.48.48,0,0,1-.26-.06.66.66,0,0,1-.16-.17c0-.07-.09-.16-.14-.27a2.69,2.69,0,0,0-.17-.34,5.06,5.06,0,0,0-1.72-1.69,4.85,4.85,0,0,0-2.61-.67,5.85,5.85,0,0,0-1.58.21A4.23,4.23,0,0,0,38,9.25a3.15,3.15,0,0,0-.94,1.11,3.32,3.32,0,0,0-.34,1.56,2.15,2.15,0,0,0,.46,1.36,4.4,4.4,0,0,0,1.14,1,7.34,7.34,0,0,0,1.46.72,12.3,12.3,0,0,0,1.43.43l.15,0h.05a13.51,13.51,0,0,1,2.54.83,8,8,0,0,1,2,1.22,5.15,5.15,0,0,1,1.26,1.62,4.75,4.75,0,0,1,.44,2.06,4.92,4.92,0,0,1-.55,2.36,5.36,5.36,0,0,1-1.5,1.75,7.19,7.19,0,0,1-2.18,1.09,8.8,8.8,0,0,1-2.58.37,8.25,8.25,0,0,1-2.18-.29,6.5,6.5,0,0,1-1.89-.86,5.68,5.68,0,0,1-1.46-1.39A5.23,5.23,0,0,1,34.41,22.37Z" transform="translate(0 0)"/><path class="cls-2" d="M59.67,16.75A9.89,9.89,0,0,1,60,14.08a10.1,10.1,0,0,1,1-2.41,9.78,9.78,0,0,1,1.58-2,10.12,10.12,0,0,1,2-1.58,10,10,0,0,1,7.72-1,10.2,10.2,0,0,1,2.4,1,10.78,10.78,0,0,1,2,1.58,10.08,10.08,0,0,1,2.6,4.45,9.89,9.89,0,0,1,.36,2.67,9.76,9.76,0,0,1-.36,2.66,9.93,9.93,0,0,1-1,2.41,10.12,10.12,0,0,1-1.58,2,10.78,10.78,0,0,1-2,1.58,10.2,10.2,0,0,1-2.4,1,10,10,0,0,1-7.72-1,10.12,10.12,0,0,1-2-1.58,9.78,9.78,0,0,1-1.58-2,9.93,9.93,0,0,1-1-2.41A9.76,9.76,0,0,1,59.67,16.75Zm1.84,0a7.89,7.89,0,0,0,.29,2.17,8.36,8.36,0,0,0,.82,2,8.47,8.47,0,0,0,1.27,1.7,8.15,8.15,0,0,0,1.66,1.33,8.51,8.51,0,0,0,2,.86,7.74,7.74,0,0,0,2.17.3,7.94,7.94,0,0,0,3.21-.65,8.14,8.14,0,0,0,2.64-1.78A8.32,8.32,0,0,0,77.32,20,8,8,0,0,0,78,16.77a8.19,8.19,0,0,0-.65-3.21,8.53,8.53,0,0,0-1.75-2.67A8.31,8.31,0,0,0,73,9.06a7.54,7.54,0,0,0-3.2-.69A8,8,0,0,0,66.56,9a8.21,8.21,0,0,0-2.63,1.82,8.48,8.48,0,0,0-1.77,2.66A8.13,8.13,0,0,0,61.51,16.74Z" transform="translate(0 0)"/><path class="cls-2" d="M83.88,7.61A.58.58,0,0,1,84,7.18.64.64,0,0,1,84.46,7h.62a.51.51,0,0,1,.42.16.58.58,0,0,1,.15.41V9.86a6.5,6.5,0,0,1,1.48-1.63,7.33,7.33,0,0,1,1.71-1,7.56,7.56,0,0,1,1.72-.49,10,10,0,0,1,1.57-.13,7.85,7.85,0,0,1,3.22.64A7.43,7.43,0,0,1,97.84,9a8.08,8.08,0,0,1,1.59,2.6A8.84,8.84,0,0,1,100,14.8v11a.69.69,0,0,1-.17.5.57.57,0,0,1-.44.17h-.56a.59.59,0,0,1-.47-.15.83.83,0,0,1-.12-.51v-11a7.34,7.34,0,0,0-.48-2.34,6.59,6.59,0,0,0-1.21-2A5.89,5.89,0,0,0,94.63,9,6,6,0,0,0,92,8.4a6.36,6.36,0,0,0-2.31.44,6.64,6.64,0,0,0-2,1.23A6.48,6.48,0,0,0,86.25,12a5.82,5.82,0,0,0-.6,2.44V25.93c0,.33-.16.49-.46.49h-.81a.43.43,0,0,1-.48-.49V21.68a.51.51,0,0,1,0-.16Z" transform="translate(0 0)"/><path class="cls-1" d="M14.91.91a.41.41,0,0,0-.37-.22H13.42a.4.4,0,0,0-.35.21,1.34,1.34,0,0,0-.08.48v.78a.42.42,0,0,0,.17.39,1.12,1.12,0,0,0,.56.1h.56a1,1,0,0,0,.56-.12A.8.8,0,0,0,15,2V1.38A1.33,1.33,0,0,0,14.91.91Z" transform="translate(0 0)"/><path class="cls-1" d="M13.08,9.5V25.93c0,.33.17.49.52.49h.8c.32,0,.47-.16.47-.49V7.38q-.06-.24-.36-.18l-.69.15a1.64,1.64,0,0,0-.65.34L11,9.11a3,3,0,0,0-.26.28.71.71,0,0,0-.08.36l0,.72q0,.33.33.27a.82.82,0,0,0,.24-.1L13.08,9.5" transform="translate(0 0)"/><path class="cls-3" d="M53.8,1.67l-.29.12-.1.05-.14.08a.29.29,0,0,0-.12.24V7H50.5a.68.68,0,0,0-.39.09.44.44,0,0,0-.12.36v.72a.5.5,0,0,0,.12.37.61.61,0,0,0,.39.1h2.65V22.8a4.32,4.32,0,0,0,.33,1.78,3.15,3.15,0,0,0,.6.9V1.58Z" transform="translate(0 0)"/><path class="cls-4" d="M58.35,7H54.91V2.07a.8.8,0,0,0-.09-.41.44.44,0,0,0-.41-.16.84.84,0,0,0-.26.06l-.07,0v23.9a2.72,2.72,0,0,0,.29.3,3.5,3.5,0,0,0,1.3.67,6.22,6.22,0,0,0,1.58.2h.25a1.06,1.06,0,0,0,.31-.05.71.71,0,0,0,.26-.13.28.28,0,0,0,.11-.22v-.32a1,1,0,0,0,0-.23v0a2,2,0,0,0,0-.36.4.4,0,0,0-.16-.26.91.91,0,0,0-.38-.15,3.28,3.28,0,0,0-.71-.06h-.36a1.27,1.27,0,0,1-.85-.26,1.69,1.69,0,0,1-.48-.72A4.05,4.05,0,0,1,55,22.86a12.59,12.59,0,0,1-.06-1.27v-13h3.44a.46.46,0,0,0,.51-.53V7.48A.44.44,0,0,0,58.35,7Z" transform="translate(0 0)"/></svg>